# xmcd
#
# Track frame offsets: 
#        150
#        12202
#        25895
#        39418
#        56574
#        65014
#        77447
#        90193
#        104177
#        114767
#        126933
#        138327
#        148006
#        160209
#        172744
#        184702
#        195380
#        210333
#        221295
#        229628
#        242127
#        252866
#        265748
#        274761
#        283910
#
# Disc length: 3934 seconds
#
# Revision: 0
# Processed by: cddbd v1.5.2PL0 Copyright (c) Steve Scherf et al.
# Submitted via: ExactAudioCopyFreeDBPlugin 1.0
#
DISCID=540f5c19
DTITLE=Various Artist - Vintage Collection - Rhythm and Blues 2
DYEAR=2015
DGENRE=Rythm and Blues
TTITLE0=Barrett Strong - Money (That's What I Want)
TTITLE1=Etta James - At Last
TTITLE2=Ben E. King - Stand By Me
TTITLE3=Marvin Gaye - I Heard It Through The Grapevine (Live)
TTITLE4=The Clovers - Love Potion No. 9
TTITLE5=Arthur Alexander - You Better Move On
TTITLE6=The Miracles - Shop Around
TTITLE7=The Supremes - I Want A Guy
TTITLE8=The Impressions - Gypsy Women
TTITLE9=The Shirelles - Baby It's You
TTITLE10=Maxine Brown - Funny
TTITLE11=The Chips - Rubber Biscuit
TTITLE12=The Coasters - Poison Ivy
TTITLE13=Jimmy McCracklin - The Walk
TTITLE14=Marv Johnson - I Love The Way You Love Me
TTITLE15=Lloyd Price - Stagger Lee
TTITLE16=Mose Allison - Parchman Farm
TTITLE17=The O'Jays - Miracles
TTITLE18=The Tramps - Your Love
TTITLE19=Carla and Rufus - Cause I Love you
TTITLE20=The Olympics - I Wish I Could Shimmy Like My Sister Kate
TTITLE21=Laurel Aitken with The Blue Beats - Railroad Track
TTITLE22=The Viscounts - Wabash Blues
TTITLE23=Otis Redding and The Pinetoppers - Fat Gal
TTITLE24=The Falcons - You're So Fine
EXTD=
EXTT0=
EXTT1=
EXTT2=
EXTT3=
EXTT4=
EXTT5=
EXTT6=
EXTT7=
EXTT8=
EXTT9=
EXTT10=
EXTT11=
EXTT12=
EXTT13=
EXTT14=
EXTT15=
EXTT16=
EXTT17=
EXTT18=
EXTT19=
EXTT20=
EXTT21=
EXTT22=
EXTT23=
EXTT24=
PLAYORDER=
